# xmcd
#
# Track frame offsets:
#	150
#	18264
#	38797
#	51642
#	70079
#	88441
#	110091
#	128174
#	145249
#	158436
#	169224
#	182874
#
# Disc length: 2568 seconds
#
# Revision: 1
# Processed by: cddbd v1.5.2PL0 Copyright (c) Steve Scherf et al.
# Submitted via: EasyCDDAExtractor 16.0.1.1
#
DISCID=ab0a060c
DTITLE=Casey Chambers - The Captain
DYEAR=1999
DGENRE=Country
TTITLE0=Cry Like A Baby
TTITLE1=The Captain
TTITLE2=This Flower
TTITLE3=You Got The Car
TTITLE4=These Pines
TTITLE5=Don't Talk Back
TTITLE6=Southern Kind Of Life
TTITLE7=Mr Baylis
TTITLE8=The Hard Way
TTITLE9=Last Hard Bible
TTITLE10=Don't Go
TTITLE11=We're All Gonna Die Someday
EXTD=
EXTT0=
EXTT1=
EXTT2=
EXTT3=
EXTT4=
EXTT5=
EXTT6=
EXTT7=
EXTT8=
EXTT9=
EXTT10=
EXTT11=
PLAYORDER=
